<svg id="eQgJUzkEb601" xmlns="http://www.w3.org/2000/svg" xmlns:xlink="http://www.w3.org/1999/xlink" viewBox="0 0 133 100" shape-rendering="geometricPrecision" text-rendering="geometricPrecision"><defs><linearGradient id="eQgJUzkEb603-fill" x1="0.142817" y1="0.935986" x2="0.732363" y2="-0.009339" spreadMethod="pad" gradientUnits="objectBoundingBox"><stop id="eQgJUzkEb603-fill-0" offset="0%" stop-color="rgb(25,140,19)"/><stop id="eQgJUzkEb603-fill-1" offset="100%" stop-color="rgb(147,212,8)"/></linearGradient><linearGradient id="eQgJUzkEb606-fill" x1="0" y1="0.5" x2="0.743933" y2="0.207089" spreadMethod="pad" gradientUnits="objectBoundingBox"><stop id="eQgJUzkEb606-fill-0" offset="0%" stop-color="rgb(25,140,19)"/><stop id="eQgJUzkEb606-fill-1" offset="100%" stop-color="rgb(147,212,8)"/></linearGradient></defs><g id="eQgJUzkEb602" transform="matrix(1.102957 -1.169727 1.157662 1.091581 -60.669699 54.954012)"><path id="eQgJUzkEb603" d="M21.057164,26.373671Q-18.516178,36.453131,-6.629129,84.629376C40.167928,59.839588,0.593381,49.27555,21.057164,26.373671Z" transform="matrix(1 0 0 1 35.518377 -15.71951)" fill="url(#eQgJUzkEb603-fill)" stroke="rgb(63,87,135)" stroke-width="0.266"/><path id="eQgJUzkEb604" d="M20.458912,16.729524C-7.802984,34.965203,8.714201,49.563021,7.01065,62.581128C5.207965,76.356793,-2.029299,77.713656,1.938068,80.922398C43.493292,64.511109,-11.716751,41.157091,20.458912,16.729524Z" transform="matrix(0.627694 0.068879 -0.081721 0.744722 36.412025 3.730421)" fill="rgb(255,255,255)" stroke="rgb(63,87,135)" stroke-width="0.266"/></g><g id="eQgJUzkEb605" transform="matrix(1.607724 0 0 1.591141 -50.633446 -34.296276)"><ellipse id="eQgJUzkEb606" rx="31.338663" ry="12.213471" transform="matrix(0.724745 -0.724876 0.825423 0.825274 85.757852 59.169776)" fill="url(#eQgJUzkEb606-fill)" stroke="none" stroke-width="0"/><path id="eQgJUzkEb607" d="M66.332559,67.99545C89.643224,82.458613,127.239972,43.135937,112.834135,22.192784C83.414764,33.88426,104.83138,62.747141,66.332559,67.99545Z" transform="matrix(1 0.000658 -0.000658 1 -4.294681 13.441126)" fill="rgb(68,26,1)" stroke="rgb(63,87,135)" stroke-width="0.266"/><path id="eQgJUzkEb608" d="M66.344905,68.344065C89.65557,82.807228,127.431176,43.646459,113.025339,22.703306C83.605968,34.394782,104.843726,63.095756,66.344905,68.344065Z" transform="matrix(-0.999995 0.003254 -0.003254 -0.999995 175.091767 103.805353)" fill="rgb(68,26,1)" stroke="rgb(63,87,135)" stroke-width="0.266"/></g></svg>